<svg xmlns="http://www.w3.org/2000/svg" width="238" height="40" fill="none" viewBox="0 0 238 40"><path fill="#4E8C03" d="M25.315 21.946c-.653 0-1.29-.11-1.895-.325-2.005-.714-3.492-2.514-4.185-5.064-.676-2.485-.518-5.401.443-8.215C21.356 3.43 25.108 0 28.804 0c.652 0 1.289.11 1.895.325 2.006.714 3.492 2.512 4.185 5.064.676 2.485.518 5.402-.444 8.213-1.678 4.913-5.43 8.344-9.125 8.344Zm3.489-20.92c-3.274 0-6.638 3.148-8.177 7.656-.894 2.617-1.044 5.317-.423 7.601.603 2.217 1.864 3.77 3.548 4.37a4.657 4.657 0 0 0 1.563.268c3.275 0 6.637-3.148 8.178-7.655.894-2.617 1.044-5.317.423-7.601-.603-2.217-1.864-3.77-3.548-4.37a4.62 4.62 0 0 0-1.564-.267v-.002Z"/><path fill="#4E8C03" d="M24.316 18.406a.5.5 0 0 1-.166-.029.517.517 0 0 1-.309-.653c.425-1.243.821-1.81 1.204-2.356.357-.511.696-.993 1.072-2.097.378-1.105.407-1.696.439-2.324.032-.673.067-1.368.493-2.61.425-1.241.821-1.808 1.205-2.355.358-.512.696-.993 1.072-2.098a.5.5 0 0 1 .64-.315c.263.094.4.385.31.653-.425 1.243-.822 1.81-1.206 2.356-.357.512-.696.993-1.072 2.097-.378 1.105-.407 1.696-.439 2.324-.032.673-.067 1.368-.493 2.61-.424 1.243-.82 1.809-1.205 2.355-.357.51-.696.993-1.072 2.098a.503.503 0 0 1-.475.344h.002ZM10.773 33.062c-3.503 0-7.239-2.922-9.295-7.27-2.647-5.6-1.642-11.713 2.24-13.626a5.708 5.708 0 0 1 2.55-.583c3.502 0 7.238 2.921 9.292 7.27 1.268 2.682 1.75 5.562 1.355 8.11-.406 2.615-1.681 4.573-3.593 5.515a5.708 5.708 0 0 1-2.55.584ZM6.267 12.609a4.72 4.72 0 0 0-2.112.482C.773 14.758-.022 20.257 2.384 25.348c1.892 4.002 5.262 6.689 8.389 6.689.754 0 1.464-.161 2.111-.481 1.607-.793 2.687-2.48 3.038-4.753.364-2.342-.087-5.007-1.267-7.503-1.892-4-5.262-6.69-8.39-6.69h.002Z"/><path fill="#4E8C03" d="M11.373 29.708a.5.5 0 0 1-.452-.29c-.56-1.186-.673-1.871-.78-2.536-.102-.62-.196-1.205-.694-2.257-.498-1.053-.886-1.493-1.299-1.958-.441-.5-.899-1.016-1.46-2.202-.56-1.185-.67-1.87-.78-2.535-.101-.62-.196-1.205-.694-2.259a.519.519 0 0 1 .234-.685.497.497 0 0 1 .671.239c.56 1.186.673 1.873.78 2.536.102.62.197 1.205.694 2.256.498 1.054.886 1.494 1.3 1.96.442.498.9 1.015 1.46 2.2.56 1.186.67 1.872.78 2.536.1.62.195 1.205.693 2.257a.519.519 0 0 1-.234.686.487.487 0 0 1-.219.05v.002ZM28.676 39.998c-3.347 0-6.018-1.423-7.143-3.806-.923-1.952-.73-4.297.547-6.603 1.243-2.244 3.374-4.194 6-5.488 2.018-.994 4.163-1.519 6.203-1.519 3.346 0 6.017 1.422 7.143 3.806.922 1.953.729 4.299-.548 6.604-1.243 2.244-3.373 4.193-6.002 5.489-2.017.993-4.162 1.519-6.202 1.519l.002-.002Zm5.605-16.39c-1.89 0-3.884.49-5.765 1.418-2.444 1.204-4.42 3.004-5.563 5.07-1.11 2.003-1.293 4.01-.517 5.652.956 2.019 3.288 3.226 6.24 3.226 1.89 0 3.883-.49 5.764-1.417 2.445-1.205 4.421-3.005 5.564-5.07 1.11-2.004 1.292-4.012.516-5.652-.955-2.02-3.287-3.227-6.239-3.227Z"/><path fill="#4E8C03" d="M24.748 34.718a.5.5 0 0 1-.453-.29.519.519 0 0 1 .235-.686c1.161-.572 1.834-.686 2.483-.796.607-.104 1.18-.2 2.212-.708 1.03-.509 1.461-.905 1.918-1.328.49-.451.995-.918 2.156-1.49 1.162-.572 1.833-.686 2.484-.797.607-.104 1.18-.2 2.21-.708a.497.497 0 0 1 .671.24.519.519 0 0 1-.234.685c-1.161.572-1.832.687-2.483.797-.608.103-1.18.199-2.21.707-1.032.509-1.463.906-1.92 1.328-.488.451-.994.918-2.155 1.49-1.161.572-1.834.686-2.483.797-.608.104-1.18.201-2.212.708a.49.49 0 0 1-.219.05ZM59.183 29.945c-.394 0-.69-.102-.887-.306-.197-.203-.296-.49-.296-.86V11.137c0-.37.099-.647.296-.832.197-.203.493-.305.887-.305.375 0 .671.102.888.305.217.185.326.463.326.832v11.124h.059l6.065-5.437a6.86 6.86 0 0 1 .71-.555c.217-.13.503-.194.858-.194.315 0 .562.083.74.25a.647.647 0 0 1 .236.582c0 .222-.118.462-.355.721l-6.45 5.742v-1.22l7.012 6.186c.276.259.414.508.414.749a.77.77 0 0 1-.295.61c-.178.166-.415.25-.71.25-.355 0-.641-.065-.858-.195a8.662 8.662 0 0 1-.8-.638l-6.567-5.686h-.06v5.354c0 .776-.404 1.165-1.213 1.165ZM77.175 30c-.986 0-1.873-.176-2.662-.527-.77-.37-1.381-.87-1.835-1.498a3.517 3.517 0 0 1-.68-2.108c0-.999.266-1.785.798-2.358.553-.573 1.45-.98 2.693-1.22 1.262-.24 2.978-.361 5.148-.361h1.331v1.47h-1.302c-1.597 0-2.86.074-3.787.222-.907.13-1.548.36-1.923.694-.355.332-.532.804-.532 1.414 0 .758.276 1.378.828 1.859.572.48 1.341.72 2.308.72.789 0 1.48-.175 2.07-.526a3.68 3.68 0 0 0 1.421-1.443c.355-.61.533-1.313.533-2.108v-3.162c0-1.147-.247-1.97-.74-2.469-.493-.518-1.302-.776-2.426-.776-.69 0-1.38.083-2.071.25-.69.166-1.42.434-2.19.804-.276.129-.512.175-.71.138a.9.9 0 0 1-.473-.305.945.945 0 0 1-.207-.5c-.02-.203.02-.397.118-.582a1.23 1.23 0 0 1 .533-.444 12.179 12.179 0 0 1 2.574-.887 11.396 11.396 0 0 1 2.426-.278c1.242 0 2.268.195 3.077.583a3.68 3.68 0 0 1 1.805 1.72c.394.758.591 1.738.591 2.94v7.517c0 .37-.098.657-.296.86-.177.204-.443.306-.798.306-.375 0-.661-.102-.858-.306-.198-.203-.296-.49-.296-.86v-2.163h.266a3.898 3.898 0 0 1-.917 1.803c-.434.5-.977.887-1.627 1.165-.651.277-1.381.416-2.19.416ZM89.52 29.889c-.394 0-.69-.102-.887-.305-.197-.222-.296-.527-.296-.915V17.323c0-.388.099-.684.296-.887.197-.204.493-.306.888-.306.374 0 .67.102.887.306.217.203.326.499.326.887V28.67c0 .388-.109.693-.326.915-.197.203-.493.305-.887.305Zm0-16.865c-.492 0-.877-.12-1.153-.361-.276-.259-.414-.601-.414-1.026 0-.444.138-.777.414-.999.276-.24.66-.36 1.154-.36.513 0 .897.12 1.154.36.276.222.414.555.414.999 0 .425-.138.767-.414 1.026-.257.24-.641.36-1.154.36ZM96.456 29.945c-.394 0-.69-.102-.887-.306-.198-.203-.296-.49-.296-.86V17.212c0-.37.099-.647.296-.832.197-.203.483-.305.858-.305.374 0 .66.102.858.305.217.185.325.462.325.832v2.441l-.325-.388c.374-1.036.976-1.83 1.805-2.386.848-.573 1.854-.86 3.017-.86 1.223 0 2.209.278 2.959.833.769.536 1.282 1.377 1.538 2.524h-.443a4.624 4.624 0 0 1 1.893-2.441c.927-.61 2.002-.916 3.225-.916 1.085 0 1.972.195 2.663.583.71.388 1.242.98 1.597 1.775.355.777.533 1.766.533 2.968v7.434c0 .37-.109.657-.326.86-.197.204-.493.306-.887.306-.375 0-.671-.102-.888-.306-.197-.203-.296-.49-.296-.86v-7.323c0-1.239-.226-2.145-.68-2.718-.454-.592-1.223-.888-2.308-.888-1.183 0-2.12.389-2.81 1.165-.671.758-1.006 1.794-1.006 3.107v6.657c0 .37-.109.657-.326.86-.197.204-.493.306-.887.306-.375 0-.671-.102-.888-.306-.197-.203-.296-.49-.296-.86v-7.323c0-1.239-.237-2.145-.71-2.718-.454-.592-1.213-.888-2.278-.888-1.183 0-2.12.389-2.81 1.165-.671.758-1.007 1.794-1.007 3.107v6.657c0 .777-.404 1.166-1.213 1.166ZM126.529 30c-1.4 0-2.613-.287-3.639-.86a6.074 6.074 0 0 1-2.397-2.413c-.552-1.054-.828-2.293-.828-3.717 0-1.073.158-2.035.473-2.885a5.96 5.96 0 0 1 1.391-2.22 6.057 6.057 0 0 1 2.16-1.386c.848-.333 1.795-.5 2.84-.5 1.4 0 2.613.287 3.639.86a5.836 5.836 0 0 1 2.367 2.441c.572 1.036.858 2.266.858 3.69 0 1.072-.158 2.034-.473 2.885-.316.85-.78 1.59-1.391 2.219a6.327 6.327 0 0 1-2.189 1.414c-.829.315-1.766.472-2.811.472Zm0-1.803c.888 0 1.667-.203 2.337-.61.671-.407 1.184-.999 1.539-1.776.374-.776.562-1.71.562-2.801 0-1.683-.404-2.968-1.213-3.856-.789-.888-1.864-1.331-3.225-1.331-.907 0-1.696.203-2.367.61-.651.388-1.164.97-1.538 1.747-.355.759-.533 1.702-.533 2.83 0 1.664.404 2.95 1.213 3.855.809.888 1.884 1.332 3.225 1.332ZM138.176 29.945c-.395 0-.69-.102-.888-.306-.197-.203-.296-.49-.296-.86V17.212c0-.37.099-.647.296-.832.198-.203.484-.305.858-.305.375 0 .661.102.858.305.217.185.326.462.326.832v2.386l-.326-.333c.415-1.073 1.085-1.877 2.012-2.413.947-.555 2.032-.833 3.255-.833 1.144 0 2.09.195 2.84.583.769.388 1.341.98 1.716 1.775.375.777.562 1.766.562 2.968v7.434c0 .37-.108.657-.325.86-.198.204-.484.306-.858.306-.395 0-.701-.102-.918-.306-.197-.203-.295-.49-.295-.86v-7.295c0-1.258-.267-2.173-.799-2.746-.513-.592-1.341-.888-2.485-.888-1.322 0-2.377.389-3.166 1.165-.769.758-1.154 1.776-1.154 3.052v6.712c0 .777-.404 1.166-1.213 1.166ZM167.53 30c-1.439 0-2.682-.296-3.727-.888a6.158 6.158 0 0 1-2.427-2.468c-.552-1.073-.828-2.312-.828-3.717 0-1.073.158-2.035.473-2.885.316-.851.78-1.572 1.391-2.164a6.012 6.012 0 0 1 2.189-1.387c.868-.314 1.845-.472 2.929-.472.71 0 1.45.102 2.219.306.77.203 1.47.554 2.101 1.054a.9.9 0 0 1 .385.471.892.892 0 0 1 0 .555c-.06.166-.158.314-.296.444a.96.96 0 0 1-.533.194c-.197.018-.404-.046-.621-.194a4.96 4.96 0 0 0-1.568-.777 5.75 5.75 0 0 0-1.539-.222c-.769 0-1.44.12-2.012.36a3.833 3.833 0 0 0-1.449.972c-.395.425-.7.952-.917 1.58-.198.63-.296 1.36-.296 2.192 0 1.61.404 2.885 1.213 3.828.808.925 1.962 1.387 3.461 1.387.493 0 .996-.074 1.509-.222a5.299 5.299 0 0 0 1.598-.776c.217-.148.424-.213.621-.195a.828.828 0 0 1 .503.222.749.749 0 0 1 .266.444c.06.185.06.37 0 .555-.059.166-.187.314-.384.444a6.386 6.386 0 0 1-2.071 1.054 8.35 8.35 0 0 1-2.19.305ZM180.818 30c-1.4 0-2.613-.287-3.639-.86a6.071 6.071 0 0 1-2.396-2.413c-.553-1.054-.829-2.293-.829-3.717 0-1.073.158-2.035.474-2.885a5.958 5.958 0 0 1 1.39-2.22 6.075 6.075 0 0 1 2.16-1.386c.848-.333 1.795-.5 2.84-.5 1.401 0 2.614.287 3.639.86a5.836 5.836 0 0 1 2.367 2.441c.572 1.036.858 2.266.858 3.69 0 1.072-.158 2.034-.473 2.885a6.27 6.27 0 0 1-1.391 2.219 6.327 6.327 0 0 1-2.189 1.414c-.829.315-1.765.472-2.811.472Zm0-1.803c.888 0 1.667-.203 2.338-.61.67-.407 1.183-.999 1.538-1.776.375-.776.562-1.71.562-2.801 0-1.683-.404-2.968-1.213-3.856-.789-.888-1.864-1.331-3.225-1.331-.907 0-1.696.203-2.367.61-.651.388-1.163.97-1.538 1.747-.355.759-.533 1.702-.533 2.83 0 1.664.405 2.95 1.213 3.855.809.888 1.884 1.332 3.225 1.332ZM193.09 29.945c-.375 0-.671-.102-.888-.306-.197-.203-.295-.49-.295-.86V18.017h-1.894c-.316 0-.572-.074-.769-.222-.178-.167-.266-.389-.266-.666s.088-.49.266-.638c.197-.148.453-.222.769-.222h2.544l-.65.583v-1.055c0-1.756.453-3.097 1.36-4.022.928-.924 2.279-1.46 4.054-1.609l.858-.083c.276-.018.493.028.651.139.177.11.286.25.325.416a.957.957 0 0 1 .03.527.88.88 0 0 1-.267.444.825.825 0 0 1-.503.222l-.68.055c-1.203.093-2.081.435-2.633 1.027-.533.591-.799 1.46-.799 2.607v1.165l-.355-.416h3.55c.336 0 .592.074.77.222.177.148.266.36.266.638 0 .277-.089.5-.266.666-.178.148-.434.222-.77.222h-3.195v10.762c0 .777-.404 1.166-1.213 1.166Z"/><path fill="#4E8C03" d="M202.48 29.945c-.375 0-.671-.102-.888-.306-.197-.203-.295-.49-.295-.86V18.017h-1.894c-.315 0-.572-.074-.769-.222-.178-.167-.266-.389-.266-.666s.088-.49.266-.638c.197-.148.454-.222.769-.222h2.545l-.651.583v-1.055c0-1.756.453-3.097 1.361-4.022.927-.924 2.278-1.46 4.053-1.609l.858-.083c.276-.018.493.028.651.139.177.11.286.25.325.416a.957.957 0 0 1 .03.527.885.885 0 0 1-.769.666l-.681.055c-1.203.093-2.081.435-2.633 1.027-.533.591-.799 1.46-.799 2.607v1.165l-.355-.416h3.55c.336 0 .592.074.77.222.177.148.266.36.266.638 0 .277-.089.5-.266.666-.178.148-.434.222-.77.222h-3.195v10.762c0 .777-.404 1.166-1.213 1.166ZM216.455 30c-1.519 0-2.831-.277-3.935-.832a6.328 6.328 0 0 1-2.545-2.413c-.591-1.036-.887-2.275-.887-3.718 0-1.405.296-2.625.887-3.661a6.428 6.428 0 0 1 2.426-2.469c1.046-.592 2.249-.888 3.61-.888.966 0 1.834.158 2.603.472.77.296 1.421.73 1.953 1.304a5.5 5.5 0 0 1 1.243 2.08c.296.814.444 1.73.444 2.746 0 .296-.089.518-.267.666-.177.13-.434.194-.769.194h-10.296v-1.47h9.734l-.474.36c0-.998-.157-1.84-.473-2.524-.315-.702-.779-1.239-1.39-1.608-.592-.37-1.342-.555-2.249-.555-1.006 0-1.864.222-2.574.665-.69.426-1.213 1.027-1.568 1.804-.355.758-.533 1.645-.533 2.663v.166c0 1.701.434 2.996 1.302 3.884.888.887 2.14 1.33 3.758 1.33.67 0 1.331-.082 1.982-.249a6.882 6.882 0 0 0 1.953-.832c.276-.166.522-.24.739-.222.237 0 .424.065.562.194.138.111.227.26.267.444.059.167.039.352-.06.555-.078.203-.246.38-.502.527-.651.444-1.421.786-2.308 1.026-.888.24-1.765.361-2.633.361ZM232.201 30c-1.519 0-2.83-.277-3.935-.832a6.319 6.319 0 0 1-2.544-2.413c-.592-1.036-.888-2.275-.888-3.718 0-1.405.296-2.625.888-3.661a6.421 6.421 0 0 1 2.426-2.469c1.045-.592 2.248-.888 3.609-.888.967 0 1.835.158 2.604.472.769.296 1.42.73 1.953 1.304a5.498 5.498 0 0 1 1.242 2.08c.296.814.444 1.73.444 2.746 0 .296-.089.518-.266.666-.178.13-.434.194-.77.194h-10.295v-1.47h9.733l-.473.36c0-.998-.158-1.84-.473-2.524-.316-.702-.779-1.239-1.391-1.608-.592-.37-1.341-.555-2.248-.555-1.006 0-1.864.222-2.574.665-.691.426-1.214 1.027-1.569 1.804-.355.758-.532 1.645-.532 2.663v.166c0 1.701.434 2.996 1.302 3.884.887.887 2.14 1.33 3.757 1.33.671 0 1.332-.082 1.982-.249a6.87 6.87 0 0 0 1.953-.832c.276-.166.523-.24.74-.222.236 0 .424.065.562.194.138.111.227.26.266.444.059.167.04.352-.059.555-.079.203-.247.38-.503.527-.651.444-1.42.786-2.308 1.026-.887.24-1.765.361-2.633.361Z"/></svg>