<svg xmlns="http://www.w3.org/2000/svg" width="386" height="297" fill="none" viewBox="0 0 386 297"><g fill="#475569" clip-path="url(#a)"><path d="M176.03 233.05a.57.57 0 0 0-.1-.31c.06-1.53 0-3.2-.25-5.11-.389-3.09-1.348-8.7-2.627-15.7-.32-3.29-.55-6.59-1.109-9.85-.609-3.58-1.828-7.1-2.637-10.65-.959-4.2-1.759-8.41-2.418-12.67-.689-4.45-1.738-8.84-2.827-13.21a6519.65 6519.65 0 0 0-5.834-28.87c.33.01.649.02.979.02 1.149 0 2.158-.29 3.267-.42.469.14 1.069-.09 1.159-.62.049-.14.079-.29.069-.45 0-.05.01-.09.02-.14.1-.71-.549-1.14-1.088-1.09-2.678-2.9-4.516-6.45-6.714-9.71-2.617-3.88-5.744-7.42-8.531-11.18-2.637-3.56-4.965-7.35-7.482-11-1.469-2.13-2.737-4.44-4.056-6.7.3.14.579.28.829.41 3.946 2.17 7.512 5.44 10.879 8.42 1.938 1.71 3.906 3.41 4.945 5.83.749 1.75.909 3.75 1.738 5.45 1.139 2.33 3.636 3.29 6.054 3.7 3.656.62 5.864-1.41 9.26-2.14 1.309-.28.68-2.25-.619-1.98-3.906.83-7.243 3.73-11.298 1.08-2.028-1.33-2.088-3.88-2.857-5.98-.54-1.48-1.249-2.84-2.258-4.06-2.937-3.53-7.013-6.36-10.579-9.21a30.954 30.954 0 0 0-5.165-3.36c-.799-.41-2.238-.81-2.887-1.45-.08-.08-.15-.16-.22-.23-.08-.11-.15-.22-.23-.33.19.02.38.06.57.08.29.02.509-.07.679-.2 3.187.49 6.284 1.54 9.52 1.69 3.587.17 7.293-1 10.769-1.75 4.736-1.01 8.801-2.03 13.047.93 1.618 1.13 3.147 2.35 4.465 3.83.67.76.959 1.23 1.968 1.52 1.239.35 1.689-1.6.45-1.95-1.049-.29-2.637-2.63-3.476-3.31-1.209-.97-2.498-1.94-3.847-2.72-2.977-1.72-6.083-1.56-9.38-.91-4.256.84-8.711 2.5-13.057 2.64-2.537.09-5.044-.49-7.552-1.01 2.947-.13 6.434-1.02 4.725-4.27-2.018-3.86-6.203-.35-8.641 2.3-.29 0-.569.02-.839.07 2.467-7.2 4.655-14.47 6.993-21.71 1.269-3.91 2.497-8.01 3.386-12.02.38-1.73.24-3.88.979-5.48.35-.77.999-1.37 1.399-2.11.32-.58.499-1.21.759-1.81 0-.01.02-.02.02-.03.1-.19.19-.38.29-.58.18-.36.11-.68-.07-.92h.509c.11-.31.23-.63.38-.93.1-.21.24-.4.4-.57l.06-.26c-1.149-.09-2.308 0-3.477.05-2.188.11-4.385 0-6.573-.1-4.835-.22-9.63-.38-14.465-.19-.919.04-1.838.1-2.758.16 2.278-6.57 4.186-13.21 6.823-19.69 2.448-6.02 5.455-11.99 7.163-18.28.04-.08.06-.16.07-.24.05-.2.12-.39.17-.59.21-.85-.889-1.19-1.339-.62-1.648-.55-5.614-1.15-15.154-1.7-10.19-.58-23.746-.91-38.151-.91-14.405 0-27.962.32-38.151.91-16.333.94-16.333 2.04-16.333 2.77 0 .19 0 .4.28.62v.02c.219 3.99 1.867 7.52 3.376 11.17 1.398 3.37 2.767 6.73 4.435 9.98 1.698 3.3 3.846 6.16 5.255 9.63.56 1.37 1.119 2.74 1.778 4.07.8 1.61 1.249 3.37 2.118 4.91.03.05.06.09.1.14-.65-.04-1.299-.09-1.958-.12-5.305-.17-10.54-.43-15.834-.75-5.444-.33-10.899.01-16.343.18-.39.01-.52.37-.42.64-.16 0-.31.02-.47.03.75 1.72 2.139 3.46 2.678 4.52 1.139 2.22 2.098 4.48 3.377 6.63 1.308 2.2 2.707 4.33 3.995 6.54 2.518 4.33 4.176 9.08 6.424 13.55 1.129 2.24 2.297 4.46 3.446 6.69.6 1.16 1.199 2.32 1.818 3.48.46.85 1.23 1.93 1.689 2.98 0 .11.04.22.13.3.14.36.23.72.24 1.06.01.24.12.41.259.52-1.668 1.27-2.717 4.42-3.476 5.9-2.408 4.65-5.125 9.16-7.053 14.04-1.788 4.5-5.325 7.78-7.612 12.03-1.2 2.23-2.578 4.33-3.816 6.54-1.23 2.2-1.988 4.75-3.667 6.66-.66.75.21 1.76.96 1.49 2.087 1.36 4.635 1.61 7.182 1.69-.49 1.86-1.049 3.7-1.628 5.54-1.25 3.99-2.078 7.95-2.828 12.06-.37 2.05-.639 4.14-.969 6.22-.519 2.21-1.038 4.49-1.548 6.81-1.229 3.97-2.168 8-3.127 12.03-.45 1.89-.809 3.81-1.278 5.7-.49 2.02-.43 3.93-.61 5.97-.16 1.77-.3 3.54-.46 5.3-.679 4.61-1.228 9.12-1.598 13.4-.3 2.11-.54 4.22-.58 6.37-.03 1.71 0 3.36.07 5.01.06 9.94 1.759 17.4 6.095 19.92.14.14.28.28.4.42 1.697 1.84 3.606 2.81 5.933 3.73.14.05.28.1.41.15.07.04.14.09.21.13.16.09.31.11.449.1 3.327 1.19 6.803 1.89 10.31 2.45-.59 2.31 1.488 3.76 3.366 4.72 3.486 1.77 7.233 3.15 11.079 3.91 9.86 1.95 19.76 2.52 29.76 3.31 5.334.42 10.548.77 15.913.88 5.304.1 10.55-.52 15.834-.5 5.274.02 10.309.05 15.554-.59 5.115-.62 10.279-.64 15.324-1.69 2.817-.59 5.694-.82 8.531-1.31 2.558-.44 5.045-1.13 7.603-1.54 1.938-.31 3.476-.72 5.015-2 1.658-1.39 2.487-3.02 3.656-4.71 0-.01.01-.03.02-.04 2.367-.31 4.755-.58 6.943-1.57 1.468-.66 2.837-1.31 4.105-2.1 5.405-2.35 9.501-7.77 9.441-13.82l-.03.02ZM15.015 143.29c.16-.57.31-1.14.45-1.71.259-.99.509-1.91.738-2.76.92.01 1.829.03 2.698.09 5.404.38 10.779.34 16.193.43 5.165.09 10.28 1.2 15.454 1.38 5.445.19 10.909.05 16.353.05 10.58 0 21.149-.02 31.708-.43 5.105-.2 10.14-1.48 15.224-1.78 5.355-.32 10.789-.05 16.144-.06 2.857 0 5.634-.33 8.481-.45 2.757-.12 5.435-.89 8.192-.95 1.348-.03 2.707.08 4.056.06 1.388-.02 2.667-.38 4.036-.5.609-.05 1.238-.05 1.858-.04.03.21.08.42.11.62.259 1.82.509 3.63.829 5.44.579 3.34 1.079 6.7 1.758 10.03 1.399 6.84 3.097 13.59 4.715 20.38.879 3.66 1.239 7.43 1.938 11.13.699 3.74 1.509 7.48 2.448 11.18 1.009 3.96 1.928 7.83 2.397 11.9.36 3.16.699 6.35 1.019 9.51.16 1.64.24 2.95.669 4.56.48 1.78.76 3.8.929 5.64.3 3.27.64 7.64-.879 10.77-.549.71-1.098 1.42-1.618 2.16-.759 1.07-1.498 2.06-2.497 2.92a.59.59 0 0 0-.21.42c-.45.45-.949.89-1.479 1.29-1.278.63-2.727 1.21-4.365 1.75-.38.07-.749.13-1.119.18-.27.03-.46.17-.579.35-3.737 1.1-8.332 2.03-13.966 2.82-.32-.01-.65 0-.989.06-.04 0-.07-.02-.11-.02-2.617.11-5.315.34-7.922.7a.76.76 0 0 0-.559.39c-4.326.43-9.091.81-14.366 1.16-2.337.15-4.645.29-6.923.41-2.607.02-5.204.05-7.802.24-.449.03-.899.11-1.328.19-13.656.54-26.143.56-37.382.17-1.399-.18-2.787-.38-4.206-.48-1.738-.12-3.516-.04-5.284.04-4.975-.29-9.66-.67-14.046-1.12-2.018-.35-4.036-.71-6.094-1-4.695-.65-9.36-1.25-14.025-1.97-5.295-1.08-9.76-2.29-13.347-3.59-.809-.6-1.578-1.24-2.407-1.83-1.559-1.12-3.077-1.94-4.306-3.49-2.397-3.03-2.797-7.56-3.246-11.28-.2-1.68-.65-3.25-.62-4.97.04-2.14.02-4.29.1-6.43.16-4.29 1.079-8.58 1.638-12.84.48-3.63.68-7.21.98-10.86.17-2.05.17-3.98.659-6 .47-1.89.799-3.81 1.268-5.69.99-3.97 1.859-7.95 3.077-11.86 1.229-3.91 1.569-7.99 2.298-12.02.46-2.54.929-5.04 1.488-7.52.63-2.47 1.22-4.74 1.759-6.78l.01.01ZM140.996 86.6l-.63 1.91c-.429.15-.869.26-1.328.31-.57.09-1.169.11-1.749.1-.659-.02-1.298-.15-1.948-.27 1.978-1.96 4.706-4.05 5.655-2.05ZM57.022 1.51l-.33-.03c1.918-.05 3.896-.1 5.954-.14-.04.13-.06.26-.06.4-.02.03-.03.05-.05.08h-.05c-.18-.17-.43-.29-.76-.3-1.458-.02-2.906.02-4.355.09-.1-.05-.21-.09-.34-.11l-.01.01Zm32.936 4.46c3.376.03 6.773-.12 10.149-.14.94.04 1.879.06 2.808.06-4.116.11-8.552.19-13.257.24.1-.05.21-.1.3-.17v.01Zm19.23-.43c1.399-.06 2.797-.13 4.196-.19.749-.03 1.408 0 2.028-.09.439.05.879.07 1.318.1-2.927.15-6.173.29-9.71.41.72-.06 1.439-.13 2.158-.24l.01.01ZM46.572 1.85l-1.618.18c-.63.02-1.249.07-1.868.15h-2.597c1.868-.12 3.896-.23 6.083-.33Zm-18.35 1.58c-.12.13-.21.28-.24.44-.28-.06-.52-.13-.71-.2.24-.08.56-.17.95-.25v.01Zm16.832 39.35c-.69-1.21-.99-2.72-1.648-3.99-.92-1.75-1.699-3.53-2.458-5.35-1.129-2.68-2.727-4.86-4.216-7.34-1.928-3.22-3.406-6.67-4.915-10.09-1.608-3.64-3.406-7.15-4.215-11.07.43.11.959.22 1.608.33 1.898.51 3.856.65 5.824.68 1.918.17 4.226.33 7.023.49 7.342.42 16.433.7 26.323.83 1.528.09 3.047.19 4.575.27 1.459.08 2.528.34 3.727-.2h3.526c14.405 0 27.961-.32 38.151-.91 4.925-.28 8.351-.58 10.759-.88.04 0 .07 0 .11.01.13.06.279.1.449.1h1.319c.14 0 .26-.03.37-.07h.019c.42.01.67-.22.78-.53.199-.04.379-.08.549-.12-2.148 6.33-5.464 12.35-8.052 18.49-2.547 6.06-4.355 12.3-6.543 18.46-.04.11-.06.22-.07.32-2.807.24-5.604.54-8.411.74-2.358.18-4.725.23-7.073.44-2.378.21-4.705.76-7.083.96-9.13.78-18.271 1.02-27.422 1.45-2.127.1-4.235.44-6.373.38-2.378-.07-4.765-.48-7.123-.76-3.267-.39-6.523-.85-9.8-1.13.41-.35.62-.94.28-1.55l.01.04ZM28.81 80.11c-1.928-3.86-3.915-7.67-5.584-11.65-1.528-3.65-3.306-7.05-5.374-10.42-2.198-3.59-3.936-7.33-5.964-10.99-.28-.51-1.03-1.51-1.619-2.51 4.296.08 8.592.02 12.877.23 4.725.23 9.4.96 14.136 1.02 4.835.06 9.55.51 14.345 1.1 4.126.51 8.371 1.34 12.547 1.08 4.486-.28 8.971-.37 13.466-.56 4.616-.2 9.191-.73 13.796-1.02 9.121-.58 18.212-1.77 27.352-2.43 5.055-.37 10.12-.48 15.185-.27 2.657.11 5.314.28 7.982.32 1.029.02 2.088-.06 3.146-.11 0 .01-.02.02-.03.03-.479.79-.649 1.61-1.068 2.42-.39.76-1.019 1.35-1.389 2.12-.759 1.58-.659 3.48-.979 5.17-.759 4.02-2.038 8.15-3.257 12.06-1.208 3.89-2.187 7.84-3.456 11.72-1.239 3.81-2.677 7.57-3.776 11.42-1.339-.34-2.688-.77-3.986-1.03-1.898-.38-3.806-.44-5.734-.44-4.226.02-8.192.59-12.348 1.25-3.116.5-6.373 1.03-9.6 1.32-5.494.08-10.989.15-16.483.19-8.342.06-16.673.49-25.014.51-3.557.01-7.123.05-10.68.08-1.238-.2-2.487-.4-3.766-.53-2.057-.22-4.125-.41-6.183-.63-.9-.1-1.888-.05-2.767-.33-.57-.18-1.05-.47-1.549-.72-.3-.89-.829-1.71-1.269-2.58-.989-1.93-1.977-3.86-2.947-5.8l-.01-.02ZM8.103 136.48c1.109-1.41 1.778-2.99 2.547-4.61.969-2.06 2.198-4.02 3.417-5.94 1.228-1.94 2.187-4.01 3.476-5.93 1.339-2 3.167-3.71 4.316-5.83 1.078-1.99 1.708-4.22 2.627-6.29.979-2.22 2.248-4.27 3.326-6.43 1.05-2.1 2.058-4.24 3.027-6.37.51-1.12 1.24-4.02 2.648-4.26.01 0 .02 0 .03-.01 0 .21.15.43.42.44.938.02 1.887.07 2.826.13 1.389.27 2.807.47 4.196.65 4.156.56 8.242 1.84 12.437 2.02 4.406.18 8.821-.13 13.197-.47 4.745-.36 9.67.03 14.425.03 4.346 0 8.541-1.12 12.827-1.16 4.206-.03 8.361-.55 12.527-1.11 8.142-.09 16.273-.17 24.425-.16.14 1.3 1.099 2.2 2.278 2.91 1.768 3 3.396 6.08 5.364 8.97 2.648 3.9 5.115 7.92 7.942 11.69 2.797 3.74 5.944 7.27 8.452 11.21 1.908 2.99 3.686 6.14 6.033 8.83a8.75 8.75 0 0 1-1.029.14c-1.118.07-2.267-.02-3.376-.03-2.508-.02-4.915.52-7.443.46-2.337-.05-4.465.11-6.763.55-2.547.49-5.234.53-7.822.74-5.164.42-10.479.08-15.664.08-2.317 0-4.665-.08-6.962.25-2.738.39-5.405.89-8.172 1.06-4.945.31-9.87.65-14.825.86-5.205.23-10.43.1-15.634.1-10.769 0-21.718.64-32.417-.81-5.554-.75-11.118-.36-16.703-.44-2.787-.04-5.574-.27-8.351-.29-2.618-.02-5.205.28-7.582-.97l-.02-.01Zm142.384 116.97c-1.808 1.58-4.116 1.49-6.334 1.97-4.265.92-8.531 1.48-12.826 2.25-4.446.8-8.821 1.08-13.307 1.55-4.525.48-8.911 1.11-13.476 1.01-9.28-.21-18.531.51-27.832.3-4.485-.1-9.03-.76-13.516-1.09-4.555-.33-9.34-.36-13.826-1.15-4.655-.82-9.46-1.41-13.985-2.74a71.824 71.824 0 0 1-6.044-2.08c-.66-.26-1.349-.49-1.978-.82-.33-.17-2.278-1.9-2.168-1.94.18-.06.31-.18.39-.33 1.468.22 2.947.44 4.415.67 3.077.49 6.214.71 9.31 1.15 1.33.19 2.688.3 4.017.53 1.598.28 3.096.82 4.725 1.05 2.927.41 5.834.66 8.79.67 3.467.01 6.904-.28 10.34.18 2.747.37 5.405.54 8.162.67 3.236.15 6.224.8 9.48.72 6.084-.14 12.308.65 18.351-.48.11.01.21.03.32.04 3.187.22 6.463-.05 9.66-.08 6.523-.06 13.237.32 19.67-.93 1.688-.33 3.357-.67 5.035-1.02 1.818.02 3.636 0 5.374-.3 3.107-.53 6.104-1.52 9.191-2.16-.559.85-1.139 1.67-1.938 2.37v-.01Z"/><path d="M10.809 183.67c-4.316 4.87-3.616 14.77-3.866 20.89-.03.71-.07 1.45-.12 2.21-.61 2.2-.77 4.62-.55 7.04-.06.93-.06 1.84-.03 2.75-.08 2.6-.14 5.31.18 7.93-.49 4.95 2.548 9.88 6.504 13.08.31.3.629.55.979.74.48.34.959.67 1.458.95 7.762 4.51 18.451 5.21 27.172 6.53l.44.06c3.846 1.04 7.792 1.81 11.688 1.98 7.233.32 14.675-.25 21.927-.3 4.466-.03 8.981-.19 13.517-.43 5.774.8 11.678.94 17.442 1 3.676.04 7.083-.98 10.689-1.21 3.416-.21 6.853-.1 10.269-.4 6.404-.57 12.737-1.32 18.961-3.05 5.534-1.54 11.298-2.79 15.484-7.04 4.326-4.39 4.995-9.85 4.685-15.72-.07-1.3-.219-2.57-.409-3.84.429-2.29.669-4.59.719-6.84.16-7.4-1.838-17.19-6.104-24.43v-.03c-.679-1.98-1.688-3.73-2.937-5.29-.389-.69-.879-1.29-1.528-1.7-4.995-4.98-12.587-7.61-19.141-8.9-10.379-2.03-21.108-1.83-31.637-2.35-11.818-.58-23.646-.11-35.474-.08-12.457.03-25.304 2.05-37.452 4.73-7.382 1.63-19.12 3.41-22.526 11.37-.11.1-.23.21-.33.33l-.01.02Zm23.486-7.44c.29-.85 1.718-.78 1.638.23-.03.41-.02.79.01 1.15 0 .11.01.22.02.33v.01c.01.04.04.07.05.11.12.33.27.64.42.93.05.09.09.17.14.26.18.31.38.6.589.88l.18.21c.02.03.05.06.07.09h-.02c.05.06.11.11.16.16.13.15.28.29.419.43l.14.14c.13.12.28.24.42.36.13.11.27.22.41.32.019.01.029.03.049.04.02.02.04.04.07.06.1.07.19.14.29.21.24.17.49.33.749.48.14.08.29.16.43.24l.569.3c.13.06.25.13.38.19.3.14.599.28.908.41.12.05.24.1.37.15.29.12.57.23.86.34l.15.06c.369.14.738.27 1.108.4.05.02.09.03.14.05 0 0 .04.01.06.02.27.09.53.18.789.27.09.03.17.06.26.09h.04l.689.15c.66.14 1.309.27 1.928.4.939.19 1.818.38 2.597.58 1.06.27.61 1.92-.45 1.64-.699-.18-1.468-.35-2.257-.53-.18.17-.43.25-.74.14-.878-.3-1.797-.61-2.716-.93h-.02c-.58-.14-1.16-.3-1.739-.46-.42-.12-.829-.24-1.248-.38-.07-.02-.14-.05-.21-.07-.41-.14-.82-.29-1.209-.44-.06-.02-.11-.04-.17-.07-.42-.17-.819-.35-1.218-.55-.08-.04-.17-.08-.25-.13-.39-.2-.77-.42-1.129-.65-.04-.03-.08-.05-.12-.08-.33-.22-.64-.45-.939-.7l-.18-.15c-.27-.24-.52-.5-.759-.77l-.3-.36c-.18-.23-.34-.46-.48-.71-.09-.14-.169-.28-.249-.43-.06-.11-.11-.23-.16-.35-.1-.22-.18-.45-.26-.69-.04-.11-.08-.22-.11-.34-.1-.37-.18-.75-.22-1.16-.04-.12-.07-.25-.109-.37-.06-.23-.13-.46-.18-.71V177c-.05-.36.1-.63.32-.82l.02.05Zm-13.676 7.19c.19.03.38.07.57.11.189.04.379.07.569.12.24.07.48.15.719.23.13.05.27.09.4.14.24.09.489.2.729.31.14.06.27.12.41.18 1.358.65 2.667 1.45 3.915 2.13 3.677 2.01 7.672 3.78 11.718 5.02.09.03.17.05.26.08.04.01.09.03.13.04.72.22 1.448.42 2.178.6.639.16 1.268.3 1.908.44.23.05.47.09.699.14.22.04.44.08.66.13.09.02.19.04.28.05.129.02.259.05.389.07.51.09 1.019.17 1.528.25.03 0 .07.01.1.02.08.01.17.03.25.04.05 0 .11.02.16.02.49.07.989.13 1.478.19.19.02.38.05.57.07.479.06.969.1 1.448.15l.61.06 1.438.12c.21.02.42.03.63.05l1.428.09.64.03c.07 0 .139 0 .209.01.41.02.81.03 1.219.05.21 0 .42.02.63.02.469.02.938.03 1.408.04h.659c.49 0 .979.02 1.468.02H66.492c.889 0 1.768-.01 2.657-.02 2.208-.02 4.416-.04 6.603-.03h.65c.929 0 1.858.03 2.797.04 1.788.03 3.586.07 5.374.12.47.01.94.02 1.409.04 1.468.04 2.937.09 4.405.13.51.01 1.03.02 1.539.04.869.02 1.728.05 2.597.06.37 0 .75.01 1.119.02 2.038-.13 4.086-.29 6.114-.46.24-.02.489-.04.729-.07.669-.06 1.349-.13 2.018-.19l1.488-.15 1.119-.12c.7-.08 1.399-.16 2.098-.25.07 0 .13-.02.2-.03 2.987-.37 5.964-.82 8.921-1.35h.04c.869-.16 1.728-.31 2.587-.49v-.01c.2-.04.4-.07.59-.11l-.01-.01c1.128-.23 2.257-.47 3.376-.73v.02a132.332 132.332 0 0 0 7.502-1.96c.43-.13.87-.26 1.299-.39.779-.24 1.568-.49 2.348-.74.389-.13.779-.25 1.168-.39 1.149-.39 2.298-.79 3.447-1.22.2-.07.36-.06.509 0 .21-.13.43-.26.64-.39.919-.6 1.778.87.859 1.47-.629.41-1.269.8-1.918 1.17-.26.15-.54.28-.799.43-.06.03-.13.07-.19.1a46.713 46.713 0 0 1-5.814 2.59c-.15.05-.3.11-.44.16-.899.32-1.808.63-2.727.91l-.39.12c-.949.29-1.918.55-2.887.79-.279.07-.549.14-.829.2-1.998.48-4.006.89-6.004 1.23-1.049.18-2.097.33-3.136.48-.19.03-.38.05-.57.08-1.039.14-2.068.27-3.077.38-1.488.17-2.987.3-4.485.4-.35.02-.709.03-1.069.05-.15 0-.3.01-.45.02-.998.05-1.987.11-2.986.14-.35.01-.69 0-1.039.02h-.46c-.999.02-2.008.05-3.007.05h-1.589c-.988 0-1.977 0-2.966-.02-1.738.11-3.487.21-5.225.29-1.878.09-3.746.16-5.624.22-.96.03-1.908.06-2.867.08-2.268.06-4.525.11-6.793.14-1.529.02-3.087.03-4.645.03h-1.08c-1.208 0-2.437-.02-3.656-.04-.619-.01-1.228-.02-1.848-.04l-1.159-.03c-.959-.03-1.908-.07-2.867-.12-.31-.02-.629-.03-.939-.05-1.178-.07-2.347-.15-3.526-.24-.2-.02-.39-.03-.59-.05-1.188-.1-2.367-.22-3.546-.35-.3-.03-.6-.08-.899-.11-.929-.11-1.858-.24-2.787-.38-.47-.07-.94-.15-1.409-.23-.739-.12-1.478-.25-2.217-.39-.69-.13-1.379-.26-2.058-.41-.37-.08-.73-.17-1.1-.25-.708-.16-1.418-.33-2.127-.51-.43-.11-.859-.23-1.289-.35-3.995-1.11-7.871-2.54-11.558-4.41-.05-.03-.11-.05-.16-.08a57.73 57.73 0 0 1-2.877-1.58h-.02a48.315 48.315 0 0 1-4.066-2.68h-.18c-.489.04-.738-.29-.768-.67v-.02c0-.09 0-.18.02-.26.01-.05.03-.09.05-.13.02-.05.03-.1.06-.15.04-.06.09-.11.14-.17.02-.02.03-.05.06-.07.08-.07.169-.13.279-.16.22-.21.52-.27.839-.08.4 0 .79.02 1.179.07l.02.03Zm127.29-5.29c.319.23.629.48.929.73.01 0 .02.02.03.03.279.24.539.49.799.74.289.29.569.59.839.91.02.02.04.04.05.06.28.33.549.68.799 1.05.589.86-.649 1.61-1.339.98-.349-.13-.679-.28-1.009-.43-.309-.15-.609-.31-.909-.48 0 0-.08-.04-.12-.07l-.209-.12c-1.039-.62-2.028-1.33-3.057-1.98-.26-.17-.52-.33-.779-.48-.72-.43-1.479-.82-2.288-1.12-3.626-1.33-7.333-1.89-11.139-2.4-4.255-.57-8.491-1.36-12.777-1.65-4.105-.28-8.201.22-12.287-.28-.02 0-.04-.02-.07-.02-.819.12-1.418-1.09-.559-1.57 2.717-1.51 5.904-1.02 8.861-.64 4.275.09 8.561.64 12.826 1.24 1.059.09 2.128.19 3.187.3 4.875.51 10.19 1.15 14.705 3.22 1.239.53 2.418 1.19 3.497 1.98h.02ZM25.883 58.73c-.25-1.23-2.097-.64-1.858.58.39 2.01.74 4.03 1.23 6.02.469 1.92 1.378 3.71 1.767 5.64.28 1.36 2.308.7 2.058-.64-.36-1.91-1.368-3.71-1.878-5.6-.54-1.98-.909-3.99-1.309-5.99l-.01-.01ZM35.883 72.03c-.929-1.94-1.778-3.83-2.327-5.93-.25-.98-1.928-.73-1.778.31.32 2.28 1.348 4.37 2.247 6.47.58 1.36 2.508.5 1.858-.85ZM135.062 128.72c.14-5.13-1.189-10.3-2.088-15.32-.17-.93-1.768-.66-1.638.29.699 5.07 1.708 9.98 1.818 15.12.03 1.24 1.868 1.14 1.908-.08v-.01ZM140.926 128.6h.05c0-2.29-.34-4.57-.5-6.85-.09-1.21-1.938-1.15-1.898.08.08 2.29.26 4.57.27 6.86 0 1.38 2.078 1.22 2.078-.09Z"/></g><g clip-path="url(#b)"><path fill="#475569" d="M232.34 147.03c-.5-.89-.18-2.25 1.139-2.35l22.227-1.68c7.302-.56 14.066-1.31 20.569-4.96 4.675-2.63 9.15-5.69 13.386-9.07-.18-.4-.349-.85-.519-1.3-2.368-1.64-4.076-4-4.975-6.91-.36-.78-.69-1.57-.989-2.36-.949-1.79-1.688-3.61-2.158-5.25-2.457-8.62 1.019-20.77 6.513-27.73.57-.72 2.318-.44 2.787.28 6.514 9.99 11.988 22.9 9.121 34.57a132.57 132.57 0 0 0 3.317-3.39l.13-.19c1.588-2.41 2.957-4.92 4.315-7.38 0-.6.3-1.23.849-1.54 3.357-6.02 6.923-11.64 13.756-14.91 8.212-3.93 17.732-4.09 26.643-4.17.609 0 2.148.45 1.678 1.34-7.962 14.85-23.396 23.64-40.069 23.42a152.003 152.003 0 0 1-6.193 6.8 55.236 55.236 0 0 1-4.556 5.35c13.167-.38 26.943 12.85 37.342 18.12.949.48.629 1.69-.32 1.89-14.635 2.98-29.42-1.29-39.969-11.53-.539-.27-1.069-.53-1.618-.8-.849-.41-1.698-.87-2.488-1.41-3.516 2.7-7.242 4.99-11.118 6.93a97.023 97.023 0 0 1-4.196 2.42c-4.885 2.62-9.95 3.79-15.314 4.39-9.321 2.11-19.011 2.96-28.501 3.14-1.459.03-2.457-1.55-.779-1.72h-.01Zm95.992-39.59c-.36.11-.72.21-1.089.31a35.807 35.807 0 0 1-5.005 1.75c-.859.41-1.738.75-2.637 1.06a42.147 42.147 0 0 0 8.721-3.11l.01-.01Z"/></g><g fill="#475569" clip-path="url(#c)"><path d="M290.507 209.505c2.583-.263 5.158-.573 7.74-.744-.488 0-.969 0-1.473.016-2.125.077-4.22.333-6.275.736l.008-.008Z"/><path d="M384.658 223.677c-1.225-3.543-2.815-6.272-6.306-7.908a14.146 14.146 0 0 0-1.287-.527 12.483 12.483 0 0 0-1.993-.581c-4.344-.954-8.904-.062-13.139 1.651a.485.485 0 0 1-.225-.155.496.496 0 0 1-.055-.139c.055-.342.086-.683.125-1.001.147-1.062.31-2.108.418-3.178.179-1.814.078-3.558-.124-5.342v-.077c0-.783-.155-1.558-.45-2.318 0-.07 0-.14.008-.202h-.093a8.789 8.789 0 0 0-.845-1.527 7.388 7.388 0 0 0-.644-.953c-.652-.83-1.45-1.504-2.319-2.094a19.047 19.047 0 0 0-.45-.341c-.597-.573-1.303-1-2.048-1.372a36.158 36.158 0 0 0-2.133-1.186.645.645 0 0 0-.193-.155c-.334-.163-.66-.295-.993-.434-2.901-1.38-6.352-2.636-10.254-3.737a.341.341 0 0 0-.225-.101 2.516 2.516 0 0 1-.256-.031c-11.099-3.085-25.773-4.969-41.844-4.969-9.129 0-17.808.605-25.642 1.698a.546.546 0 0 0-.124-.039c-.961-.054-1.954-.264-2.9-.093-1.164.209-2.281.651-3.421.961-.256.07-.512.132-.768.194-.287.039-.566.07-.845.124-1.303.233-2.591.613-3.863.992-.302.07-.612.148-.915.225-.318.086-.636.171-.946.272-5.026 1.256-9.408 2.752-12.976 4.426-1.854.721-3.646 1.721-5.212 2.977-3.297 2.357-5.127 4.954-5.127 7.675-.202 9.14 1.218 18.482 4.126 27.739.217 1.054.582 2.031.923 3.077.466 1.388.846 2.861 1.458 4.187.295.635.636 1.24.978 1.845.442 1.039.899 2.077 1.38 3.109.124.302.241.612.372.914.311.745.613 1.489.939 2.225-.14.016-.272.055-.396.117-1.861.953-4.11 1.31-6.065 2.1-1.613.652-3.126 1.962-4.568 3.07-1.823.845-3.576 1.76-5.189 3.086-2.195 1.799-3.793 4.768-3.327 7.667.224 1.411 1.07 2.884 2.249 3.83.45.667.938 1.302 1.458 1.907.783 1.147 1.753 2.713 2.87 3.458.938 1 1.954 1.922 3.009 2.791 2.28 1.876 4.7 3.612 7.159 5.248 2.66 1.768 5.359 3.675 8.276 4.985 2.908 1.302 5.949 2.349 8.896 3.574 2.831 1.178 5.654 1.775 8.679 2.163 3.552.457 7.05 1.186 10.61 1.597 3.421.395 6.849.775 10.277 1.163 6.531.736 13.131.976 19.685.488 6.43-.481 13.038-.892 19.367-2.194 3.196-.659 6.236-1.853 9.409-2.589 1.349-.31 2.722-.497 4.079-.768 1.497-.302 2.49-1.093 3.84-1.721 2.598-1.209 5.522-1.798 8.12-3.054 1.125-.543 2.102-1.349 3.227-1.923 1.349-.69 2.567-1.535 3.738-2.489 4.7-3.814 10.308-8.233 12.999-13.822.024-.039.039-.086.055-.124.861-1.024 1.295-2.311.907-3.993 0-.008 0-.015-.008-.023.055-1.039.117-2.21-.054-3.132-.403-2.186-2.559-3.062-4.32-4.117a48.7 48.7 0 0 0 2.086-1.977c1.063-1.062 2.126-2.116 3.149-3.209.892-.729 1.761-1.473 2.56-2.303 3.04-3.17 5.165-7.876 5.786-12.396.132-.527.248-1.062.341-1.597.69-3.899.272-7.907-1.016-11.644Zm-.419 12.233c-.76 3.466-2.226 6.807-4.134 9.8-1.202 1.876-2.66 3.55-4.196 5.155-.667.519-1.334 1.031-1.978 1.543-2.404 1.922-4.39 4.372-6.91 6.147a.726.726 0 0 0-.326.613c-3.987 2.868-8.4 5.148-13.108 6.582a68.124 68.124 0 0 1-10.145 2.225 2.445 2.445 0 0 1-1.187.287h-1.093c-.117.015-.233.031-.349.038-.256.031-.512.055-.768.078l-.054-.054-.07.069c-.062 0-.132.016-.194.016-.279.178-.558.341-.838.519-.116.078-.24.155-.356.233 0 0-.016.015-.024.015.287-.178-.046.031-.147.132-.008.008-.023.016-.031.023a2.136 2.136 0 0 1-.279.31 2.95 2.95 0 0 1-.155.264c.031 0 .069 0 .1-.008a.376.376 0 0 1-.054.07c-.078.054-.155.116-.233.171-.209.24-.449.411-.705.519-.435.31-.861.62-1.28.946-1.094.845-1.962 1.915-3.103 2.69-.186.124-.372.24-.566.364-2.528 1.528-5.305 2.396-8.089 3.326-1.42.473-2.855.969-4.305 1.411-1.846.357-3.661.868-5.507 1.202-1.489.155-2.971.178-4.46.302-1.466-.046-2.932-.155-4.397-.093-2.544.109-5.073-.046-7.625.116-.45.031-.899.047-1.349.07-.784-.116-1.559-.248-2.358-.31-2.707-.209-5.367-.814-8.051-1.279a20.572 20.572 0 0 0-1.474-.512 31.869 31.869 0 0 0-1.372-.38.461.461 0 0 0-.419-.17c-.024 0-.055 0-.078.008-.023 0-.039.015-.054.015-.846-.209-1.691-.411-2.544-.62-1.388-.341-2.645-.884-3.932-1.411a30.847 30.847 0 0 1-1.528-.899c-2.257-1.427-4.452-2.954-6.702-4.388-2.396-1.52-5.01-2.977-6.934-5.094-1.97-2.17-3.591-4.791-5.258-7.202-1.001-1.442-2.063-2.845-3.111-4.256-1.644-3.341-3.055-6.814-4.917-10.039-1.528-2.652-2.583-5.52-3.738-8.35-1.071-2.612-2.219-5.178-2.971-7.915a50.098 50.098 0 0 1-.745-3.132c-.682-3.729-1.295-7.458-1.768-11.218a.878.878 0 0 0 .039-.155c.039-.853 0-1.737.054-2.597.38.473.815.938 1.303 1.395.652.946 1.42 1.783 2.366 2.481 1.07.791 2.241 1.295 3.467 1.799.24.101.481.201.729.31a.44.44 0 0 0 .318.132c1.233.527 2.466 1.062 3.746 1.449.31.093.628.171.946.233 2.847 1.047 6.042 2 9.533 2.837.736.264 1.465.528 2.249.667.644.116 1.287.194 1.931.256 8.175 1.659 17.676 2.744 27.891 3.07 2.063.163 4.103.263 6.189.279.776 0 1.536-.109 2.304-.194a178.33 178.33 0 0 0 5.049-.108h.086c1.31.054 2.629.178 3.947.093.675-.039 1.334-.194 2.002-.334 1.349-.031 2.699-.116 4.064-.333.108-.016.217-.023.325-.039.481-.008.97-.023 1.451-.046.597-.031 1.187-.024 1.768-.171.117-.031.241-.07.357-.108 1.039-.07 2.079-.14 3.11-.295.939-.132 1.862-.326 2.777-.527 5.933-.868 11.401-2.031 16.226-3.45 1.342-.318 2.676-.698 3.986-1.225.249-.101.481-.209.722-.318.496-.178 1-.364 1.473-.55l.38-.147-.162-.373a6.245 6.245 0 0 0-1.032-1.62l-.132-.139-.116-.031-.016-.132-.093-.093a7.443 7.443 0 0 0-.69-.62l-.543-.357-.109.667a4.598 4.598 0 0 0-.263-.884l-.047-.116-.108-.07c-.931-.589-1.924-1.07-2.886-1.543l-.457-.225c-.473-.232-.947-.465-1.427-.69.364.427.705.884 1.031 1.372 0 0 .016 0 .016.008a8.774 8.774 0 0 1 .263.396.864.864 0 0 1 .101.217c0 .023.008.038.016.062a.594.594 0 0 1 .023.155v.054c0 .14-.047.271-.124.388-.318.504-1.164.705-1.575.038-.178-.294-.387-.558-.581-.821h-.008s-.008-.016-.016-.024h.008c-.039-.054-.085-.1-.124-.155a10.942 10.942 0 0 0-.458-.573h.016c-.07-.078-.14-.148-.21-.225-.015-.016-.023-.031-.038-.047a.429.429 0 0 1-.062-.069c-.062-.063-.117-.14-.179-.202h-.007c-.21-.217-.419-.426-.636-.62h.015c-.039-.039-.085-.062-.124-.101a11.03 11.03 0 0 0-.652-.543l.055.024c-.101-.078-.21-.148-.318-.225 0 0-.008 0-.016-.008l-.116-.093c-.132-.101-.272-.194-.411-.287-.14-.093-.287-.186-.427-.279-.085-.054-.163-.109-.24-.155h-.016c-.023-.016-.046-.039-.077-.054h-.024c-1.427-.838-2.993-1.466-4.645-1.946h-.008c-.093-.023-.179-.054-.272-.078-.411-.116-.83-.225-1.248-.318-.031 0-.063-.015-.094-.023-.023 0-.046-.015-.077-.015a37.834 37.834 0 0 0-1.303-.279c-.039 0-.078-.016-.116-.024-.187-.038-.373-.077-.559-.108.016 0 .039.015.054.015-.038 0-.085-.015-.124-.023-.38-.07-.76-.132-1.148-.194-.162-.023-.325-.046-.496-.077l-.326-.047c.047 0 .086 0 .132.008-.395-.054-.783-.101-1.171-.155a95.684 95.684 0 0 0-2.055-.248c-.163-.016-.326-.039-.497-.054l-1.458-.163c-.318-.039-.636-.07-.946-.109a89.824 89.824 0 0 1-1.621-.201.842.842 0 0 1-.295-.101c-.023-.016-.054-.031-.078-.047a.668.668 0 0 1-.147-.155.956.956 0 0 1-.062-.124c-.023-.062-.054-.124-.062-.186v-.008c0-.069 0-.139.015-.217 0-.031.008-.069.016-.1a1.01 1.01 0 0 1 .039-.148c0-.015.008-.023.015-.038.093-.21.248-.396.466-.504a39.636 39.636 0 0 0-1.885-.163l-.109-.225h-.248a14.567 14.567 0 0 0-3.777.403c2.901-.791 6.127-.38 9.245.209 1.342.163 2.715.318 4.088.512.302.039.605.093.907.14.434.062.869.124 1.295.201.024 0 .047 0 .07.016.691.116 1.381.256 2.063.403 2.118.465 4.173 1.085 6.05 1.992.171.078.334.163.497.248.589.303 1.155.636 1.698 1 .101.031.202.062.303.101l.279-.736c-1.52-.613-3.141-1.194-5.119-1.838l-.489-.162a216.91 216.91 0 0 0-2.521-.814c1.746.511 3.429 1.054 5.065 1.628 3.172 1.116 6.515 2.372 9.323 4.341.023.015.039.031.062.046a28.338 28.338 0 0 1-.357-.24l-.45.644s.047.038.07.062c-1.357-1.101-3.11-1.845-4.7-2.458-.45-.178-.9-.333-1.35-.488a15.052 15.052 0 0 1 2.8 2.48 89.198 89.198 0 0 1 3.56 1.799l1.451.783.039.085.093.062c.318.21.62.434.899.659l.784.636v.085l.101.117a6.413 6.413 0 0 1 1.186 1.798l.155.349.357-.147c2.389-.977 4.437-2.024 6.159-3.109a.837.837 0 0 0 .449-.287c.101-.062.187-.132.287-.194.683-.318 1.35-.674 1.97-1.116a11.305 11.305 0 0 0 1.629-1.419c.07-.062.14-.132.21-.194.69.512-.132 3.016.077 4.636-.015.039-.023.086-.046.124-.031.062-.039.117-.047.171 0 .039.008.07.008.109v.155s.008.023.015.031h-.015v.356c.202.117.388.272.543.458.101-.047.209-.086.31-.132.822.364 1.931 0 2.753-.202a94.706 94.706 0 0 1 4.848-1.07c3.413-.635 6.942-.573 9.959 1.419 1.489.985 2.055 2.698 2.862 4.21.744 1.403 1.435 2.853 1.97 4.349.52 1.465.589 3.016.682 4.558.07 1.148.287 2.249.35 3.388-.07.52-.163 1.031-.272 1.543l-.008.015Zm-39.308-22.869Zm.295.317-.163-.178c.054.062.109.116.163.178Zm-106.965 50.268s-.038-.031-.062-.047l.047-.023c0 .023.008.046.015.07Zm.869-2.497c.016.078.047.155.078.225-.016.008-.031.023-.047.031-.008-.085-.023-.17-.031-.256Zm37.4 17.327c-.085 0-.163 0-.248.008-.023 0-.039.008-.062.008.008-.055.008-.117.008-.171.1.054.201.101.302.155Zm-9.113-5.132c-.055.023-.101.062-.148.093-.116-.116-.24-.233-.356-.349.085.031.17.054.256.085.085.055.162.117.248.171Zm2.226 5.667s0-.016-.008-.016c.023 0 .039.016.062.016h-.054Zm-31.669-16.8c-.054.031-.116.078-.17.109.015-.023.031-.039.046-.062l.109-.109c0 .024.008.039.015.062Zm1.544.559a2.35 2.35 0 0 0-.093.155s-.008 0-.016.007a.214.214 0 0 0-.015-.069c.039-.031.077-.062.124-.086v-.007Zm93.166 14.752a1 1 0 0 0-.023.21 17.68 17.68 0 0 1-.613.178c-.31.07-.62.14-.938.209.527-.193 1.055-.395 1.574-.589v-.008Zm8.168.241s.038.023.054.031l-.349.046c.101-.023.194-.054.295-.077Zm4.048-5.016c-.031-.039-.054-.078-.093-.109a.854.854 0 0 0-.333-.372h.031c.349 0 .69-.023 1.039-.038-.217.162-.434.325-.651.511l.007.008Zm-9.431 2.008c.279-.233.551-.473.814-.721.086.116.21.201.349.24-.388.163-.775.318-1.171.481h.008Zm7.911 2.682c.83-.217 1.66-.442 2.49-.682.008 0 .023 0 .031-.008a.957.957 0 0 0 .015.256c-.837.163-1.69.31-2.536.434Zm10.975-3.388a.731.731 0 0 0 .388-.31.559.559 0 0 0 .17.109c-.256.101-.504.209-.76.318-.24.093-.481.193-.721.287 0-.024-.023-.055-.031-.078.318-.109.636-.209.954-.318v-.008Zm12.999-11.155c-.046 0-.093 0-.139.015.069-.031.139-.054.209-.093-.023.023-.046.054-.07.078Zm-8.818 2.473h-.016c-.031 0-.062.015-.093.015.101-.046.209-.085.31-.132-.062.039-.132.07-.194.109l-.007.008Zm-11.829 3.488s-.069-.039-.108-.054c.163-.031.333-.054.496-.085-.132.046-.256.093-.388.139Zm-4.816.783a1.382 1.382 0 0 1-.178-.031c-.063-.015-.117-.031-.179-.046l.566-.07a1.436 1.436 0 0 0-.209.147Zm-88.676-74.455c2.273-.659 4.266-2.031 6.508-2.713 2.164-.659 4.421-1.271 6.631-1.744.341-.07.675-.155 1.001-.233.038 0 .077-.015.116-.023.9-.109 1.799-.202 2.691-.271 3.886-.318 7.78.038 11.611-.706 2.017-.395 4.095-.636 6.128-.938 1.877-.279 3.816-.085 5.708-.078 4.064.016 8.136.024 12.2.039 4.034.016 8.144-.163 12.069.869 1.613.426 3.133.426 4.754.651 1.846.256 3.692.488 5.546.674 1.939.202 3.762.876 5.647 1.303 2.016.457 3.901 1.224 5.941 1.597 2.071.379 4.064.666 6.034 1.434 1.792.698 3.638 1.101 5.406 1.806.737.427 1.435.915 2.187 1.318 1.156.613 2.226 1.202 3.266 1.93.162.187.325.373.496.551.9.922 1.807 1.636 2.482 2.76.605 1.008.838 2.085 1.031 3.225.008.356 0 .713 0 1.046 0 .225 0 .466-.007.706-.186.969-.667 1.822-1.327 2.566-.372.271-.767.535-1.078.767-.876.652-1.791 1.109-2.761 1.528-.993-.706-1.846-1.659-2.916-2.295-1.489-.892-3.041-1.706-4.545-2.582-1.42-.821-2.878-1.473-4.406-2.046-2.319-1.132-4.436-1.76-7.027-2.349a62.255 62.255 0 0 1-1.093-.272c-1.319-.566-3.033-1.194-4.584-1.364-1.52-.488-3.064-.907-4.646-1.171-3.855-.651-7.818-1.031-11.712-1.294-8.027-.543-16.179-.163-24.183.496-7.834.651-15.505 1.992-22.982 4.442a87.84 87.84 0 0 0-2.505.868c-.915 0-1.838.101-2.653.372-.279.093-.356.504-.17.69a109.785 109.785 0 0 0-6.539 2.807c-1.985.938-3.924 2.015-5.693 3.326-.612.449-1.217.922-1.791 1.426-.357.31-.621.659-.869 1.008-1.559-.527-3.11-1.38-4.452-2.272-1.761-1.163-3.071-3.132-3.863-5.047-.372-.914-.643-1.635-.574-2.457.07-.349.163-.69.256-1.023.031-.07.047-.14.086-.217.473-1.039 1.163-2.032 1.923-2.869.566-.62 1.21-1.194 1.877-1.729a27.545 27.545 0 0 1 6.725-3.395c.209-.07.426-.148.636-.217 1.124-.31 2.265-.582 3.405-.907l.015.007Zm97.758 20.211c0-.07 0-.132-.015-.194.132-.031.264-.062.38-.085.023.031.07.047.101.07-.155.077-.311.147-.466.217v-.008Zm-3.513-2.295h.101c0 .039 0 .078-.008.117-.031-.039-.054-.086-.085-.117h-.008Zm-19.747-9.892v.008a11.784 11.784 0 0 1-.923-.171c-.404-.1-.807-.201-1.21-.294.721.132 1.435.287 2.14.449l-.007.008Zm-77.197 13.04a17.707 17.707 0 0 0 1.513-.357 1.04 1.04 0 0 0-.156.155s-.015 0-.023.008a.624.624 0 0 0-.271.45h-.365a11.993 11.993 0 0 0-.698-.256Zm30.063-11.861a65.215 65.215 0 0 1 2.172-.504 93.944 93.944 0 0 1 1.597-.318c.186-.031.38-.062.566-.101.481-.078.962-.155 1.443-.225.21-.031.419-.062.628-.085.481-.062.97-.116 1.459-.163.193-.023.387-.039.589-.062.675-.062 1.35-.108 2.032-.139.675-.031.939.55.83 1.062v.038c-.016.055-.031.109-.054.163a.903.903 0 0 1-.543.489l.225-.024c3.25-.302 7.042-.395 10.509 1.101l-.077.047c-3.258-1.45-6.802-1.403-9.525-1.194h-.194l-.101.186c-.325-.016-.643-.023-.969-.031h-.388l-.962.101c-2.039.24-4.048.488-6.042.767a55.517 55.517 0 0 0-4.77 1.179.263.263 0 0 0-.077.015l-.442.14c-.528.162-1.063.333-1.59.504-.179.062-.365.108-.543.17-.078.023-.148.054-.225.085a73.33 73.33 0 0 0-2.172.799c-.031.015-.07.023-.101.039h.024a1.434 1.434 0 0 0-.07.023.06.06 0 0 0 .039-.016 70.036 70.036 0 0 0-5.531 2.458c9.649-4.024 20.399-5.915 30.203-5.194-10.083-.706-21.089 1.31-30.947 5.574-.303.155-.613.31-.915.465a.933.933 0 0 1-.388.108 64.288 64.288 0 0 0-3.723 1.838l-.101.054-.101.178c-.101.179-.194.357-.287.543l-.388.837c.055-.139.109-.287.171-.442l.427-1.046-.985.558a60.044 60.044 0 0 0-4.623 2.884l.039-.07a61.354 61.354 0 0 1 5.6-3.403l.093-.054.031-.055 1.489-.752a66.662 66.662 0 0 1 2.226-1.07c-.675-.062-1.125-.938-.659-1.457-.791.605-1.482 1.248-2.048 1.93l-.62.752c.279-.395.589-.783.954-1.178l1.419-1.535c.209-.093.427-.186.644-.271l.07-.039c1.908-1.334 4.343-2.419 7.407-3.318a57.858 57.858 0 0 1 3.707-1.31h.008a73.372 73.372 0 0 1 1.737-.528c.597-.17 1.195-.333 1.8-.488l.023-.015Zm48.995 9.713a.563.563 0 0 0 .109.171c-.101 0-.202.008-.303.015.062-.062.124-.124.194-.186Zm-45.04 7.776c-.93-.163-1.869-.341-2.8-.527l-.922-.186c-.047-.008-.101-.023-.156-.031a98.606 98.606 0 0 1-2.962-.675 142.645 142.645 0 0 1-8.602-2.411 227.585 227.585 0 0 1-3.676-1.193.85.85 0 0 1-.605-.745v-.054c0-.101 0-.202.023-.302a.862.862 0 0 1 .186-.388c-.093-.062-.186-.108-.279-.17l.279.17a.73.73 0 0 1 .566-.287l-.015-.147.659-.078-.38-.535a4.695 4.695 0 0 1-.341-.527l-.186-.325-.334.17c-1.885.946-2.893 1.791-3.087 2.59-.085.356-.015.713.225.969h-.085a1.288 1.288 0 0 1-.272-.652l-.054-.302-.272-.07c.016-.069.032-.131.055-.201l1.21-1.039c1.799-1.543 5.491-2.775 7.073-3.303l.481-.162a56.286 56.286 0 0 1 3.591-1.109c-.744.217-1.481.442-2.21.682l-.225.07c-.954.31-3.483 1.147-5.67 2.147l-.395.179.217.372c.38.643.853 1.186 1.396 1.659l1.163.372s.008 0 .016.008l.675.209c.449.14.899.287 1.349.419.372.116.745.232 1.117.341.302.093.597.186.9.271l1.373.396c.108.031.217.062.333.093h-.008l.396.116c.07.023.147.039.217.062h.039c.791.217 1.582.434 2.365.636.218.015.443.038.652.054.512.039 1.008.085 1.474.124 1.659.155 3.327.287 4.995.395a222.521 222.521 0 0 1-6.523-.504l-.132-.015c-.117-.008-.241-.023-.357-.031a96.57 96.57 0 0 0 2.474.597c.016 0 .023 0 .039.008.807.186 1.613.356 2.428.519h-.008c.07.015.14.023.209.039.093.015.186.038.272.062h.015c.256.054.52.1.776.147h-.07c.194.039.388.062.574.101.729.139 1.458.263 2.18.38 0 0 .054.007.077.015h.054c.931.147 1.862.279 2.8.396 2.56-.024 5.127-.117 7.656-.218l2.357-.093v-.395h.086-.093v-.388a665.376 665.376 0 0 1-9.176-.317c3.483.147 6.95.232 10.362.317l2.413.109-.264.574h.628a56.382 56.382 0 0 1 4.181.031c-3.46-.086-7.105.054-10.634.193-1.877.078-3.769.148-5.654.194v.194c.597.054 1.194.101 1.791.147h-.139l.395.024c.334.023.667.038 1.001.054.302.015.605.039.9.046.062 0 .124.008.186.008h.496-.015c1.404.039 2.807.039 4.211-.023H299.806c.14 0 .287-.023.427-.031.597-.031 1.194-.07 1.791-.116h.016c.109-.008.209-.008.318-.024l.411-.046c.59-.054 1.179-.124 1.768-.202.156-.015.303-.031.458-.054h-.023c.039 0 .07 0 .108-.015h-.046a48.682 48.682 0 0 0 2.342-.373v.016a54.046 54.046 0 0 0 4.157-.915c.466-.124.923-.248 1.389-.388.116-.031.217-.038.318-.031h.039a.708.708 0 0 1 .256.078c.015 0 .031.016.038.023.078.039.14.093.202.155.008.008.016.024.023.031.055.07.109.148.148.225.038.085.062.186.077.279.016.093.008.194 0 .287v.016a.737.737 0 0 1-.093.263s0 .008-.008.016a.654.654 0 0 1-.194.224.918.918 0 0 1-.318.163c-1.155.341-2.311.62-3.474.884-.489.109-.985.217-1.474.318-.295.054-.589.108-.884.155-.466.085-.939.171-1.404.24-.341.055-.683.093-1.024.14-.287.039-.566.077-.853.108-.752.086-1.497.163-2.249.225-.14.008-.279.023-.419.039-.861.062-1.722.101-2.575.124-.279.008-.566.008-.846.016-.612.007-1.217.015-1.83 0a58.141 58.141 0 0 1-2.971-.101c-.209-.016-.426-.024-.636-.039a78.734 78.734 0 0 1-8.182-.985l-.055.039Zm-21.205-10.621c-2.707 1.318-5.227 2.845-7.407 4.559v-.093c2.738-2.07 5.856-3.877 9.269-5.365l-1.862.907v-.008Zm53.207 10.373c-.194-.008-.388-.015-.589-.031a29.88 29.88 0 0 0 1.256-.225c-.256.109-.465.194-.636.264h-.039l.008-.008Zm-37.865-6.179c.333-.054.675-.108 1.008-.17.039.054.085.093.132.147-.38.016-.76.023-1.14.031v-.008Zm32.056-3.318s.046-.038.054-.038l.279-.187h.055c.046.016.085.039.132.062-.148.055-.295.117-.443.171h-.069l-.008-.008Zm-3.056-.62a1.586 1.586 0 0 0-.202-.101h.311l-.101.101h-.008Zm-28.76 2.264a39.015 39.015 0 0 0-5.064 3.395l.085.109s-.078-.008-.109-.016l-.07-.054a39.11 39.11 0 0 1 5.158-3.426v-.008Zm10.052 5.45-1.481-.07 1.481.07Zm27.007-6.985-.016.031c-1.613.209-3.296-.551-4.925-1.279-.558-.248-1.124-.504-1.683-.721.683.232 1.389.504 2.141.814l.535.225c1.21.503 2.583 1.085 3.948.938v-.008Zm-8.346-1.667h.016a.958.958 0 0 1-.621.124c-1.846-.256-3.684-.326-5.514-.302h-.357c-.396.007-.799.023-1.194.046-.28.008-.559.016-.83.031h-.132a93.875 93.875 0 0 0-4.894.427c-1.04.108-2.079.224-3.126.341l-1.311.139c-.581.062-1.171.109-1.753.163-.364.031-.736.07-1.101.101-.76.062-1.528.101-2.296.139-.512.024-1.024.055-1.536.062-.023 0-.038-.007-.062-.007-.217.093-.434.178-.651.271.202-.093.403-.186.613-.279-.388-.039-.636-.279-.722-.589-3.567 1.318-6.639 3.031-9.129 5.116l-.077.024c2.528-2.117 5.615-3.83 9.206-5.156a.921.921 0 0 1-.007-.434c0-.046.023-.085.038-.132l.024-.085a.25.25 0 0 1 .031-.07c.015-.031.038-.054.054-.085a.823.823 0 0 1 .101-.132h-.008s0-.008.008-.015c.039-.039.101-.07.147-.101.031-.023.062-.054.101-.07.101-.039.209-.062.333-.07a51.003 51.003 0 0 0 1.575-.046h.023c.621-.031 1.249-.062 1.869-.109 1.381-.356 2.8-.674 4.297-.93.21-.039.419-.07.629-.093l.387-.054-.054-.783a63.01 63.01 0 0 0-10.091.635 61.384 61.384 0 0 1 13.574-.519l.124.217.248-.023c4.816-.411 9.299-.109 13.364.876a47.362 47.362 0 0 0-1.676-.349l-.015.07c.085.008.17.015.264.031.349.046.542.24.612.48h-.015c0 .016.008.031.015.047.086.38-.108.853-.496 1.085l.015.008Zm-21.779 8.497-1.241-.07 1.241.07Zm42.969-.225s-.039.07-.054.108c-.466.101-.908.194-1.295.287l-.179.047a63.75 63.75 0 0 1 1.939-.892c-.139.148-.279.295-.411.45Zm-25.929 4.768h.187l.007.007h-.201v-.007h.007Zm30.614-7.334c-.078-.054-.148-.109-.233-.163.109-.039.21-.085.318-.124a.779.779 0 0 0-.085.287Zm-10.967-1.814h.054c-.054.054-.109.101-.163.155a.669.669 0 0 0-.163.31c-.426.046-.845.101-1.272.155.551-.155 1.086-.349 1.536-.612l.008-.008Zm-20.74-12.862a6.172 6.172 0 0 1-.427-.062.878.878 0 0 0-.155-.139l1.66-.047c-.357.078-.714.155-1.07.241l-.008.007Zm-17.956 1.148h-.287l.9-.116-.613.116Zm-4.94.76a76.032 76.032 0 0 0-4.189.984c-.457.078-.907.155-1.365.225a87.33 87.33 0 0 1 5.817-1.271c-.085.015-.178.038-.263.054v.008Zm56.123 14.016a.852.852 0 0 0-.124-.426 36.225 36.225 0 0 0 2.032-.248c-.652.201-1.288.418-1.9.666l-.008.008Zm12.495-2.853s-.015-.046-.023-.062c.008.023.015.047.023.062Zm-9.92-22.885c-.047-.016-.093-.023-.14-.039.047.008.093.023.14.031v.008Zm-59.14-2.636c-.877.039-1.753.046-2.63.046a170.15 170.15 0 0 1 6.663-.697c-1.342.279-2.692.581-4.041.643l.008.008Zm-34.003 66.206c-.047-.015-.093-.031-.148-.039h-.015v-.015c.085-.039.163-.078.248-.116-.031.054-.054.108-.085.162v.008Zm7.5 21.862c.326.07.659.155.985.233-.326-.078-.659-.148-.985-.225v-.008Zm11.006 2.248c.504.07.985.202 1.458.349-.807-.139-1.605-.294-2.404-.449.318.023.628.054.946.1Zm29.675 3.388.504.07-.566-.023c.015-.016.046-.031.062-.055v.008Zm20.336-.124c.031.062.07.124.109.178-.621.031-1.249.062-1.869.086.589-.086 1.179-.163 1.76-.264Zm48.903-18.986-.062.024c.015-.008.038-.024.054-.031l.008.007Zm-1.839 17.885c-.969.698-1.977 1.186-3.032 1.752-1.28.69-2.319 1.497-3.692 2.032-2.451.945-5.259 1.62-7.539 2.907-1.311.736-2.342 1.209-3.855 1.465a55.05 55.05 0 0 0-3.552.705c-3.056.737-5.988 1.877-9.075 2.512-6.073 1.241-12.402 1.613-18.568 2.101-6.282.496-12.611.333-18.878-.333-6.337-.675-12.697-1.318-18.972-2.434-2.714-.481-5.499-.605-8.151-1.396-2.932-.876-5.709-2.295-8.586-3.357-4.096-1.512-7.966-3.729-11.635-6.217a.555.555 0 0 0-.225-.248 21.202 21.202 0 0 1-1.318-.822c-.652-.458-1.295-.93-1.939-1.403a40.218 40.218 0 0 1-3.141-2.737 193.17 193.17 0 0 1-3.723-3.938c-.039-.016-.078-.039-.117-.062-.015-.016-.023-.031-.038-.039-.024-.015-.055-.031-.078-.054-.039-.039-.07-.078-.109-.117a.581.581 0 0 1-.302-.162c-.52-.52-.962-1.055-1.373-1.59a15.427 15.427 0 0 1-.442-.604c-.023-.031-.039-.062-.062-.086-.124-.193-.24-.387-.357-.581-.108-.178-.209-.364-.31-.55l-.124-.217c-.171-.342-.334-.69-.465-1.047-.016-.023-.032-.039-.039-.062a3.616 3.616 0 0 1-.706-1.535.545.545 0 0 1-.194-.039c-.008-1.271-.054-2.395.768-3.465.543-.706 1.109-1.403 1.729-2.039 1.66-1.682 3.677-2.876 5.569-4.233.621-.442 1.179-.868 1.745-1.264 1.528-.697 3.118-1.194 4.701-1.713a129.13 129.13 0 0 1 2.334-1.217.645.645 0 0 1 .737.085c.256-.062.52-.116.776-.155.085.14.178.279.263.419a.894.894 0 0 0-.434-.124c.039.039.085.085.116.147.094.186.187.364.272.55.14.28.093.659-.171.853 0 0-.039.047-.07.055-.48.248-.969.48-1.458.705-.101.047-.201.085-.302.132-.419.194-.846.38-1.272.558-.163.07-.334.14-.497.209-1.132.473-2.272.931-3.404 1.419-.032.015-.063.031-.094.039a36.057 36.057 0 0 0-2.039.938h-.039c-.194.093-.38.201-.574.294-.008 0-.023.008-.031.016-.086.046-.171.085-.248.132-.008 0-.016.007-.031.015-.295.155-.59.318-.885.481-.387.225-.775.449-1.155.698a8.317 8.317 0 0 0-.636.457c-.062.054-.124.101-.186.155-.125.109-.249.209-.365.318a3.823 3.823 0 0 1-.186.178c-.101.101-.194.202-.287.303l-.163.186a8.262 8.262 0 0 0-.24.317l-.124.171a3.483 3.483 0 0 0-.256.45c-.008.015-.024.038-.031.054a4.27 4.27 0 0 0-.202.488l-.047.163c-.023.078-.054.163-.077.24l.008-.007c-.21.852-.14 1.721.139 2.581-.504 1.372.838 2.528 1.823 3.388 1.815 1.589 3.924 2.861 5.77 4.419 1.35 1.14 2.769 1.706 4.258 2.217.799.512 1.598 1.024 2.405 1.512.101.046.209.085.31.14.039.007.07.015.109.031l.388.023c.248.085.496.155.752.225.333.178.737.279 1.124.372.21.069.412.132.621.201.062.024.124.016.178.024h.024c.077.031.155.038.232.046l-.038.155a212.698 212.698 0 0 0 17.412 3.458h.031a224.878 224.878 0 0 0 34.507 2.651c7.461 0 14.931-.364 22.33-1.109 1.605-.201 3.211-.387 4.809-.573 8.857-1.039 17.947-2.117 26.688-5.326 1.722-.551 3.444-1.132 5.119-1.838.799-.333 1.521-.728 2.017-1.341.07-.038.14-.069.209-.108l-.054-.101c.031-.047.062-.101.085-.147.381-.117.761-.225 1.141-.357a59.626 59.626 0 0 0 2.187-1.233c.031-.046.054-.085.101-.131.496-.404 1.031-.799 1.566-1.202 1.474-2.194 2.987-4.721 2.676-6.931-.543-.79-1.241-1.713-1.566-2.636-.109-.093-.225-.178-.349-.271-.295-.209-.427-.574-.241-.907.334-.581.287-.566.791-.954.016-.015.039-.015.055-.031.178-.201.457-.294.744-.069.031.023.054.046.085.069a.567.567 0 0 1 .458.07c.481.295.884.706 1.233 1.179h-.015c.093.124.163.232.248.341a7.48 7.48 0 0 1 .768 1.651c.225.519.357 1.047.411 1.574v.039c.015.147.023.302.031.449v.504c.008.388 0 .768-.047 1.124a5.318 5.318 0 0 1-.287 1.14 4.05 4.05 0 0 1-.217.504c-.008.023-.023.046-.031.069 0 .008 0 .016-.008.024 0 0 0 .015-.007.023a7.23 7.23 0 0 1-.365.62c-.023.039-.046.07-.07.109a6.548 6.548 0 0 1-.411.55c-.031.039-.07.078-.101.116-.155.179-.31.357-.48.535-.295.411-.605.814-.939 1.218.054-.024.109-.055.163-.078-3.281 4.171-7.423 8.039-11.712 11.14h.023Zm10.65-23.598a.952.952 0 0 0-.21-.031c-.039 0-.077.015-.116.023l.132-.109c.062.039.132.078.194.117Z"/><path d="M371.264 223.638c-.047 0-.094-.008-.14-.015-1.241-.233-2.567-.225-3.855-.086a26.625 26.625 0 0 0-4.211.636c-1.102.256-2.195.574-3.281.892-.093.248-.186.504-.272.752 0 .015-.007.023-.015.038-.008.031-.024.062-.031.093-.031.086-.062.171-.093.264l-.21.581a31.66 31.66 0 0 1-.186 2.063 93.01 93.01 0 0 0-.442 2.542c-.419 1.21-.876 2.404-1.272 3.621a.491.491 0 0 0 .039.395c-.83 2.055-1.334 4.233-2.001 6.342-.109.341-.225.674-.342 1.015-.193.465-.38.923-.566 1.388-.566 1.473-1.062 3.078-1.652 4.605-.039.093-.077.194-.116.287-.349.868-.729 1.713-1.179 2.496-.419.729-.877 1.411-1.295 2.14-.536.93-1.195 2.574-2.126 3.178-.341.217-.426.582-.356.954.372 1.899 3.614 1.062 4.793.69 1.551-.496 2.901-1.279 4.243-2.202a43.804 43.804 0 0 1 2.97-1.876 59.652 59.652 0 0 0 4.646-2.644c.481-.302.954-.612 1.419-.938 1.435-.969 2.831-2 4.158-3.085 4.335-3.566 7.477-8.481 8.136-14.141.558-4.822-1.621-9.31-6.763-9.977v-.008Zm-18.049 28.925a.765.765 0 0 1-.178-.512c.077-.147.147-.302.225-.45.031-.023.046-.062.093-.085a2.8 2.8 0 0 1 .512-.209.629.629 0 0 1 .55-.132c.039 0 .078.016.117.023.356-.015.721.047 1.078.14.504.124 1 .31 1.504.504.66.186 1.311.38 1.97.566a.65.65 0 0 1 .249.139c.062.016.108.054.155.085-.791.45-1.567.915-2.335 1.396-1.489-.039-3.025-.442-3.932-1.473l-.008.008Zm8.113-.931s-.039.024-.062.031c-1.334-.31-2.552-.938-3.886-1.248-1.07-.248-2.179-.535-3.273-.736.558-1.411 1.047-2.861 1.575-4.241 1.163-3.047 2.606-5.969 3.753-9.024.613-1.635 1.117-3.333 1.397-5.062.062-.395.1-.791.124-1.186.108-.303.217-.605.318-.907.194-.582.372-1.163.55-1.745.093-.31.155-.713.256-1.069.241-.07.473-.148.691-.225 1.303-.504 2.784-.938 4.188-1.062 2.218-.202 5.297-.031 6.934 1.674 1.823 1.892 1.768 5.249 1.691 7.691-.101 3.139-1.59 5.248-3.514 7.543-1.365 1.628-2.745 3.256-4.188 4.814-1.939 2.086-4.041 3.458-6.554 4.752ZM250.004 236.554c-1.574-3.558-2.66-7.326-3.459-11.125-.171-.806-1.357-.411-1.218.38.691 3.837 1.714 7.597 3.258 11.195.69 1.604 1.466 3.17 2.373 4.667.97 1.604 2.187 3.232 2.761 5.031.311.969 1.629.488 1.466-.457-.271-1.489-1.349-2.931-2.14-4.195-1.117-1.79-2.172-3.558-3.025-5.488l-.016-.008ZM254.612 237.143c-.318-.597-1.171-.039-.884.55 1.714 3.52 2.986 6.939 5.693 9.869.651.706 1.729-.418 1.031-1.093-2.784-2.651-4.087-6.008-5.84-9.334v.008ZM350.943 241.136c.131-.388-.52-.636-.675-.256-1.094 2.698-1.264 5.675-2.172 8.442-.535 1.636-1.194 3.194-2.079 4.667-.38.644-.814 1.248-1.202 1.892-.194.318-.791 1.907-1.225 2.015-.853.225-.419 1.613.403 1.303.946-.357 1.109-1.241 1.536-2.086.907-1.79 2.032-3.411 2.753-5.295 1.326-3.473 1.474-7.186 2.661-10.675v-.007Z"/></g><defs><clipPath id="a"><path fill="#fff" d="M0 0h176.03v262.93H0z"/></clipPath><clipPath id="b"><path fill="#fff" d="M0 0h118.758v63.76H0z" transform="matrix(-1 0 0 1 350.219 85)"/></clipPath><clipPath id="c"><path fill="#fff" d="M0 0h158.837v110H0z" transform="translate(227.163 187)"/></clipPath></defs></svg>